<?xml version="1.0" encoding="UTF-8"?>
<svg xmlns="http://www.w3.org/2000/svg" xmlns:xlink="http://www.w3.org/1999/xlink" width="24pt" height="24pt" viewBox="0 0 24 24" version="1.1">
<g id="surface1">
<path style=" stroke:none;fill-rule:evenodd;fill:rgb(24.705882%,53.333333%,100%);fill-opacity:1;" d="M 24 12 C 24 18.628906 18.628906 24 12 24 C 5.371094 24 0 18.628906 0 12 C 0 5.371094 5.371094 0 12 0 C 18.628906 0 24 5.371094 24 12 Z M 24 12 "/>
<path style=" stroke:none;fill-rule:evenodd;fill:rgb(100%,100%,100%);fill-opacity:1;" d="M 16.21875 13.769531 L 16.21875 10.230469 L 19.457031 7.859375 L 19.457031 16.140625 Z M 16.21875 13.769531 "/>
<path style=" stroke:none;fill-rule:evenodd;fill:rgb(100%,100%,100%);fill-opacity:1;" d="M 15.421875 10.8125 C 15.421875 9.074219 14.457031 7.859375 12.566406 7.859375 C 9.445312 7.859375 4.542969 7.859375 4.542969 7.859375 C 4.542969 7.859375 4.542969 10.707031 4.542969 13.144531 C 4.542969 15.015625 5.691406 16.140625 7.414062 16.140625 C 10.617188 16.140625 15.421875 16.140625 15.421875 16.140625 C 15.421875 16.140625 15.421875 13.265625 15.421875 10.8125 Z M 15.421875 10.8125 "/>
</g>
</svg>
